<svg xmlns="http://www.w3.org/2000/svg" viewBox="0 0 286.22 43.86"><defs><style>.cls-1{fill:#231f20;}.cls-2{font-size:13.71px;fill:#f29220;font-family:SpaceAge, Space Age;letter-spacing:0.5em;}.cls-3{letter-spacing:0.38em;}.cls-4{fill:#6cc0e6;}</style></defs><title>Asset 7</title><g id="Layer_2" data-name="Layer 2"><g id="Logo_II" data-name="Logo II"><path class="cls-1" d="M133.44,26.84H101.9a5.21,5.21,0,0,1-5.23-5.32V5.75A5.28,5.28,0,0,1,101.9.42h31.44a5.29,5.29,0,0,1,5.32,5.33V21.52A5.27,5.27,0,0,1,133.44,26.84Zm-.9-20.09a1.22,1.22,0,0,0-1.11-1.21H103.9a1.14,1.14,0,0,0-1.1,1.21V20.61a1.11,1.11,0,0,0,1.1,1.11h27.53a1.12,1.12,0,0,0,1.11-1.11V6.75Z"/><path class="cls-1" d="M181.53,26.84h-36V21.72h34a1.11,1.11,0,0,0,1.1-1.11V17.4a1.12,1.12,0,0,0-1.1-1.11H150.88A5.27,5.27,0,0,1,145.66,11V5.75A5.27,5.27,0,0,1,150.88.42h35.17V5.54H152.89a1.14,1.14,0,0,0-1.1,1.21V10a1.11,1.11,0,0,0,1.1,1.11h28.74a5.27,5.27,0,0,1,5.22,5.32v5.13A5.36,5.36,0,0,1,181.53,26.84Z"/><path class="cls-1" d="M48.54,26.74V.42H89.73V5.54H54.66v5.53H88.92v5.12H54.66v5.53H89.73v5.12l-41.19-.1Z"/><path class="cls-1" d="M230.51,26.84H199a5.21,5.21,0,0,1-5.22-5.32V5.75A5.27,5.27,0,0,1,199,.42h31.44a5.3,5.3,0,0,1,5.33,5.33V21.52A5.27,5.27,0,0,1,230.51,26.84Zm-.9-20.09a1.21,1.21,0,0,0-1.11-1.21H201a1.15,1.15,0,0,0-1.11,1.21V20.61A1.12,1.12,0,0,0,201,21.72H228.5a1.11,1.11,0,0,0,1.11-1.11V6.75Z"/><polygon class="cls-1" points="286.22 20.33 285.79 20.63 286.22 20.52 286.22 20.33"/><path class="cls-1" d="M286.22,20.69a3.33,3.33,0,0,1-.74.09c-.12,0-1.17-.14-1.26-.14H249.69a1.43,1.43,0,0,1-1.43-1.43V0h-7.93V20.38a6.73,6.73,0,0,0,6.75,6.88h39.13Z"/><path class="cls-1" d="M35.86,26.84H5.22A5.21,5.21,0,0,1,0,21.52V5.75A5.27,5.27,0,0,1,5.22.42h36V5.54h-34a1.14,1.14,0,0,0-1.1,1.21V20.61a1.11,1.11,0,0,0,1.1,1.11H34a1.11,1.11,0,0,0,1.1-1.11V16.29H21.2V11.17h20V21.62A5.27,5.27,0,0,1,35.86,26.84Z"/><text class="cls-2" transform="translate(0 42.56) scale(0.99 1)">CONSU<tspan class="cls-3" x="96.49" y="0">L</tspan><tspan x="113.73" y="0">TING</tspan></text><rect class="cls-4" x="187.22" y="33.63" width="99" height="8.93"/></g></g></svg>