<svg xmlns="http://www.w3.org/2000/svg" viewBox="0 0 180.9 14.82"><defs><style>.cls-1{fill:#fff;}</style></defs><title>Asset 27</title><g id="Layer_2" data-name="Layer 2"><g id="Logo_II" data-name="Logo II"><path class="cls-1" d="M80.86,14.59H63.72a2.83,2.83,0,0,1-2.84-2.89V3.12A2.86,2.86,0,0,1,63.72.23H80.81A2.87,2.87,0,0,1,83.7,3.12V11.7A2.86,2.86,0,0,1,80.86,14.59ZM80.37,3.67a.66.66,0,0,0-.6-.66h-15a.62.62,0,0,0-.6.66V11.2a.6.6,0,0,0,.6.6h15a.6.6,0,0,0,.6-.6V3.67Z"/><path class="cls-1" d="M112,14.59H92.45V11.8h18.46a.61.61,0,0,0,.6-.6V9.46a.61.61,0,0,0-.6-.6H95.34A2.86,2.86,0,0,1,92.51,6V3.12A2.86,2.86,0,0,1,95.34.23h19.12V3h-18a.62.62,0,0,0-.6.66V5.42a.61.61,0,0,0,.6.6h15.61a2.86,2.86,0,0,1,2.84,2.89V11.7A2.91,2.91,0,0,1,112,14.59Z"/><path class="cls-1" d="M30.72,14.53V.23H53.1V3H34.05V6H52.67V8.8H34.05v3H53.1v2.79l-22.38-.06Z"/><path class="cls-1" d="M142.63,14.59H125.48a2.84,2.84,0,0,1-2.84-2.89V3.12A2.87,2.87,0,0,1,125.48.23h17.09a2.87,2.87,0,0,1,2.89,2.89V11.7A2.86,2.86,0,0,1,142.63,14.59Zm-.5-10.92a.66.66,0,0,0-.6-.66h-15a.62.62,0,0,0-.6.66V11.2a.6.6,0,0,0,.6.6h15a.6.6,0,0,0,.6-.6V3.67Z"/><polygon class="cls-1" points="180.9 11.05 180.67 11.21 180.9 11.15 180.9 11.05"/><path class="cls-1" d="M180.9,11.25a2.35,2.35,0,0,1-.4,0l-.68-.07H161.05a.78.78,0,0,1-.78-.78V0H156V11.08a3.66,3.66,0,0,0,3.67,3.74H180.9Z"/><path class="cls-1" d="M19.49,14.59H2.84A2.84,2.84,0,0,1,0,11.7V3.12A2.87,2.87,0,0,1,2.84.23H22.39V3H3.93a.62.62,0,0,0-.6.66V11.2a.6.6,0,0,0,.6.6H18.46a.61.61,0,0,0,.6-.6V8.86H11.52V6.07H22.39v5.68A2.87,2.87,0,0,1,19.49,14.59Z"/></g></g></svg>