<svg xmlns="http://www.w3.org/2000/svg" viewBox="0 0 155.57 25.86"><defs><style>.cls-1{fill:#82837f;}.cls-2{fill:#ee7469;}.cls-3{fill:#d6bb9c;}</style></defs><title>Asset 22</title><g id="Layer_2" data-name="Layer 2"><g id="Logo_II" data-name="Logo II"><path class="cls-1" d="M72.53,14.59H55.38a2.84,2.84,0,0,1-2.84-2.89V3.12A2.87,2.87,0,0,1,55.38.23H72.47a2.87,2.87,0,0,1,2.9,2.89V11.7A2.87,2.87,0,0,1,72.53,14.59ZM72,3.67a.66.66,0,0,0-.6-.66h-15a.63.63,0,0,0-.61.66V11.2a.61.61,0,0,0,.61.6h15a.61.61,0,0,0,.6-.6V3.67Z"/><path class="cls-1" d="M98.66,14.59H79.12V11.8H97.57a.6.6,0,0,0,.6-.6V9.46a.6.6,0,0,0-.6-.6H82A2.87,2.87,0,0,1,79.17,6V3.12A2.87,2.87,0,0,1,82,.23h19.11V3h-18a.62.62,0,0,0-.6.66V5.42a.61.61,0,0,0,.6.6H98.72a2.87,2.87,0,0,1,2.84,2.89V11.7A2.91,2.91,0,0,1,98.66,14.59Z"/><path class="cls-1" d="M26.38,14.53V.23H48.77V3H29.71V6H48.33V8.8H29.71v3H48.77v2.79l-22.39-.06Z"/><path class="cls-1" d="M125.29,14.59H108.15a2.83,2.83,0,0,1-2.84-2.89V3.12A2.86,2.86,0,0,1,108.15.23h17.09a2.87,2.87,0,0,1,2.89,2.89V11.7A2.87,2.87,0,0,1,125.29,14.59ZM124.8,3.67a.66.66,0,0,0-.6-.66h-15a.62.62,0,0,0-.6.66V11.2a.6.6,0,0,0,.6.6h15a.6.6,0,0,0,.6-.6V3.67Z"/><polygon class="cls-1" points="155.57 11.05 155.34 11.21 155.57 11.15 155.57 11.05"/><path class="cls-1" d="M155.57,11.25a2.48,2.48,0,0,1-.41,0l-.68-.07H135.71a.78.78,0,0,1-.77-.78V0h-4.31V11.08a3.66,3.66,0,0,0,3.67,3.74h21.27Z"/><path class="cls-1" d="M19.49,14.59H2.84A2.84,2.84,0,0,1,0,11.7V3.12A2.87,2.87,0,0,1,2.84.23H22.39V3H3.93a.62.62,0,0,0-.6.66V11.2a.6.6,0,0,0,.6.6H18.46a.61.61,0,0,0,.6-.6V8.86H11.52V6.07H22.39v5.68A2.87,2.87,0,0,1,19.49,14.59Z"/><path class="cls-2" d="M19,25.86H11.92a1.17,1.17,0,0,1-1.17-1.19V21.14a1.18,1.18,0,0,1,1.17-1.2h7a1.19,1.19,0,0,1,1.19,1.2v3.53A1.18,1.18,0,0,1,19,25.86Zm-.2-4.5a.28.28,0,0,0-.25-.27H12.37a.25.25,0,0,0-.24.27v3.11a.24.24,0,0,0,.24.24h6.17a.25.25,0,0,0,.25-.24V21.36Z"/><path class="cls-2" d="M40.93,25.86h-8V24.71h7.6a.25.25,0,0,0,.25-.24v-.72a.25.25,0,0,0-.25-.25H34.07a1.18,1.18,0,0,1-1.17-1.19V21.14a1.18,1.18,0,0,1,1.17-1.2h7.87v1.15H34.52a.26.26,0,0,0-.25.27v.72a.25.25,0,0,0,.25.25H41a1.18,1.18,0,0,1,1.17,1.19v1.15A1.2,1.2,0,0,1,40.93,25.86Z"/><path class="cls-2" d="M1.17,25.86A1.17,1.17,0,0,1,0,24.67V21.14a1.18,1.18,0,0,1,1.17-1.2H8.86v1.15H1.62a.25.25,0,0,0-.25.27v3.11a.25.25,0,0,0,.25.24H8.86v1.15Z"/><path class="cls-2" d="M29.73,25.85l-6.5-4.43v4.43H21.85V20h1.38l6.5,4.44V20H31.1v5.9Z"/><polygon class="cls-2" points="75.27 19.98 65.87 19.98 65.87 21.1 69.88 21.06 69.88 25.83 71.26 25.83 71.26 21.06 75.27 21.1 75.27 19.98"/><path class="cls-2" d="M80.91,25.85V20h1.37v5.9Z"/><path class="cls-2" d="M107.06,25.86H100.2A1.16,1.16,0,0,1,99,24.67V21.14a1.18,1.18,0,0,1,1.17-1.2h8v1.15h-7.6a.25.25,0,0,0-.25.27v3.11a.25.25,0,0,0,.25.24h6a.25.25,0,0,0,.25-.24v-1h-3.11V22.35h4.48v2.34A1.18,1.18,0,0,1,107.06,25.86Z"/><path class="cls-2" d="M95.87,25.85l-6.5-4.43v4.43H88V20h1.38l6.5,4.44V20h1.37v5.9Z"/><path class="cls-2" d="M64.13,24.71H56.92a.27.27,0,0,1-.3-.24V19.94H55v4.73a1.3,1.3,0,0,0,1.41,1.19h7.76Z"/><path class="cls-2" d="M51.85,19.94v4.53a.24.24,0,0,1-.24.24H45.44a.25.25,0,0,1-.25-.24V19.94H43.82v4.73A1.17,1.17,0,0,0,45,25.86h7.07a1.18,1.18,0,0,0,1.17-1.19V19.94Z"/><rect class="cls-3" x="115.18" y="19.98" width="40.39" height="5.85"/></g></g></svg>