<svg xmlns="http://www.w3.org/2000/svg" viewBox="0 0 286.22 47.58"><defs><style>.cls-1{fill:#231f20;}.cls-2{fill:#f7941d;}.cls-3{fill:#6cc0e6;}</style></defs><title>Asset 17</title><g id="Layer_2" data-name="Layer 2"><g id="Logo_II" data-name="Logo II"><path class="cls-1" d="M133.44,26.84H101.9a5.21,5.21,0,0,1-5.23-5.32V5.75A5.28,5.28,0,0,1,101.9.42h31.44a5.29,5.29,0,0,1,5.32,5.33V21.52A5.27,5.27,0,0,1,133.44,26.84Zm-.9-20.09a1.22,1.22,0,0,0-1.11-1.21H103.9a1.14,1.14,0,0,0-1.1,1.21V20.61a1.11,1.11,0,0,0,1.1,1.11h27.53a1.12,1.12,0,0,0,1.11-1.11V6.75Z"/><path class="cls-1" d="M181.53,26.84h-36V21.72h34a1.11,1.11,0,0,0,1.1-1.11V17.4a1.12,1.12,0,0,0-1.1-1.11H150.88A5.27,5.27,0,0,1,145.66,11V5.75A5.27,5.27,0,0,1,150.88.42h35.17V5.54H152.89a1.14,1.14,0,0,0-1.1,1.21V10a1.11,1.11,0,0,0,1.1,1.11h28.74a5.27,5.27,0,0,1,5.22,5.32v5.13A5.36,5.36,0,0,1,181.53,26.84Z"/><path class="cls-1" d="M48.54,26.74V.42H89.73V5.54H54.66v5.53H88.92v5.12H54.66v5.53H89.73v5.12l-41.19-.1Z"/><path class="cls-1" d="M230.51,26.84H199a5.21,5.21,0,0,1-5.22-5.32V5.75A5.27,5.27,0,0,1,199,.42h31.44a5.3,5.3,0,0,1,5.33,5.33V21.52A5.27,5.27,0,0,1,230.51,26.84Zm-.9-20.09a1.21,1.21,0,0,0-1.11-1.21H201a1.15,1.15,0,0,0-1.11,1.21V20.61A1.12,1.12,0,0,0,201,21.72H228.5a1.11,1.11,0,0,0,1.11-1.11V6.75Z"/><polygon class="cls-1" points="286.22 20.33 285.79 20.63 286.22 20.52 286.22 20.33"/><path class="cls-1" d="M286.22,20.69a3.33,3.33,0,0,1-.74.09c-.12,0-1.17-.14-1.26-.14H249.69a1.43,1.43,0,0,1-1.43-1.43V0h-7.93V20.38a6.73,6.73,0,0,0,6.75,6.88h39.13Z"/><path class="cls-1" d="M35.86,26.84H5.22A5.21,5.21,0,0,1,0,21.52V5.75A5.27,5.27,0,0,1,5.22.42h36V5.54h-34a1.14,1.14,0,0,0-1.1,1.21V20.61a1.11,1.11,0,0,0,1.1,1.11H34a1.11,1.11,0,0,0,1.1-1.11V16.29H21.2V11.17h20V21.62A5.27,5.27,0,0,1,35.86,26.84Z"/><path class="cls-2" d="M34.93,47.58h-13a2.15,2.15,0,0,1-2.16-2.19v-6.5a2.19,2.19,0,0,1,2.16-2.2h13a2.19,2.19,0,0,1,2.2,2.2v6.5A2.18,2.18,0,0,1,34.93,47.58Zm-.37-8.28a.5.5,0,0,0-.45-.5H22.76a.47.47,0,0,0-.45.5V45a.46.46,0,0,0,.45.46H34.11a.46.46,0,0,0,.45-.46V39.3Z"/><path class="cls-2" d="M75.31,47.58H60.49V45.47h14a.47.47,0,0,0,.46-.46V43.69a.47.47,0,0,0-.46-.46H62.68A2.17,2.17,0,0,1,60.53,41V38.89a2.18,2.18,0,0,1,2.15-2.2H77.17V38.8H63.51a.47.47,0,0,0-.45.5v1.33a.45.45,0,0,0,.45.45H75.35a2.17,2.17,0,0,1,2.15,2.19v2.12A2.2,2.2,0,0,1,75.31,47.58Z"/><path class="cls-2" d="M2.15,47.58A2.14,2.14,0,0,1,0,45.39v-6.5a2.18,2.18,0,0,1,2.15-2.2H16.31V38.8H3a.47.47,0,0,0-.45.5V45a.46.46,0,0,0,.45.46H16.31v2.11Z"/><path class="cls-2" d="M54.7,47.56l-12-8.16v8.16H40.21V36.71h2.52l12,8.16V36.71h2.52V47.56Z"/><polygon class="cls-2" points="138.49 36.76 121.19 36.76 121.19 38.82 128.57 38.74 128.57 47.52 131.1 47.52 131.1 38.74 138.49 38.82 138.49 36.76"/><path class="cls-2" d="M148.86,47.56V36.71h2.52V47.56Z"/><path class="cls-2" d="M197,47.58H184.35a2.15,2.15,0,0,1-2.16-2.19v-6.5a2.18,2.18,0,0,1,2.16-2.2h14.81V38.8h-14a.47.47,0,0,0-.45.5V45a.46.46,0,0,0,.45.46h11a.47.47,0,0,0,.46-.46V43.23h-5.71V41.12h8.23v4.31A2.17,2.17,0,0,1,197,47.58Z"/><path class="cls-2" d="M176.38,47.56l-12-8.16v8.16h-2.53V36.71h2.53l12,8.16V36.71h2.52V47.56Z"/><path class="cls-2" d="M118,45.47H104.72a.52.52,0,0,1-.55-.46V36.69h-3v8.7a2.39,2.39,0,0,0,2.6,2.19H118Z"/><path class="cls-2" d="M95.4,36.69V45a.46.46,0,0,1-.45.46H83.61a.47.47,0,0,1-.46-.46V36.69H80.63s0,2.17,0,2.2v6.5a2.14,2.14,0,0,0,2.15,2.19h13a2.17,2.17,0,0,0,2.15-2.19v-8.7Z"/><rect class="cls-3" x="211.91" y="36.76" width="74.31" height="10.76"/></g></g></svg>