<svg xmlns="http://www.w3.org/2000/svg" viewBox="0 0 93.31 93.31"><defs><style>.cls-1{fill:#6cc0e6;}.cls-2{fill:#606161;}.cls-3{fill:#f7941d;}</style></defs><title>Asset 15</title><g id="Layer_2" data-name="Layer 2"><g id="Logo_II" data-name="Logo II"><path class="cls-1" d="M67.21,88.17A53.21,53.21,0,0,0,88,68.89v-.27H67.21Z"/><path class="cls-2" d="M65.62,70.79a29.39,29.39,0,0,1-19,7c-16.6,0-30.06-13.93-30.06-31.11s13.46-31.1,30.06-31.1a29.39,29.39,0,0,1,19,7V4a46.66,46.66,0,1,0,0,85.27Z"/><rect class="cls-1" x="67.21" y="26.34" width="20.11" height="40.08"/><rect class="cls-1" x="25.77" y="35.55" width="39.99" height="22.22"/><path class="cls-1" d="M67.21,4.21v20.3H88C84.86,17.27,75.58,7.79,67.21,4.21Z"/><path class="cls-3" d="M88.79,66.7h0a48.22,48.22,0,0,0,.27-40.09h-.29Z"/></g></g></svg>