<svg xmlns="http://www.w3.org/2000/svg" viewBox="0 0 50.42 51.86"><defs><style>.cls-1{fill:#d6bb9c;}.cls-2{fill:#82837f;}.cls-3{fill:none;}</style></defs><title>Asset 20</title><g id="Layer_2" data-name="Layer 2"><g id="Logo_II" data-name="Logo II"><path class="cls-1" d="M36.26,49.05A28.72,28.72,0,0,0,47.48,38.64v-.15H36.26Z"/><rect class="cls-1" x="36.26" y="15.74" width="10.86" height="21.66"/><path class="cls-1" d="M41.7,0,36.83,9.83l10.05,5C47.12,10.56,44.9,3.74,41.7,0Z"/><path class="cls-2" d="M48,37.4h0a26,26,0,0,0,.14-21.66H48Z"/><path class="cls-1" d="M20.84,51.5a22.49,22.49,0,0,0,4.37.36,25.15,25.15,0,0,0,10.24-2.17l.08-10h0A20.45,20.45,0,0,1,20.84,51.5Z"/><path class="cls-2" d="M35.59,13.48h0v-10A25.19,25.19,0,0,0,25.36,1.32a24.8,24.8,0,0,0-4.59.43A20.85,20.85,0,0,1,35.59,13.48Z"/><path class="cls-3" d="M35.67,39.43h0a15.25,15.25,0,0,1-10.14,4,16.06,16.06,0,0,1-13.35-6.64"/><rect class="cls-1" y="20.57" width="35.53" height="12"/><path class="cls-2" d="M10.17,33H.82A25.22,25.22,0,0,0,20.62,51.4,20.82,20.82,0,0,0,35.44,39.67h0a15.85,15.85,0,0,1-10.24,3.77A16.26,16.26,0,0,1,10.17,33Z"/><path class="cls-2" d="M10.23,20.12a16.24,16.24,0,0,1,15-10.31,15.85,15.85,0,0,1,10.24,3.77h0A20.86,20.86,0,0,0,20.62,1.83,25.23,25.23,0,0,0,.86,20.12Z"/></g></g></svg>