<svg xmlns="http://www.w3.org/2000/svg" viewBox="0 0 359.23 7.93"><defs><style>.cls-1{fill:#e7e7d9;}</style></defs><title>Asset 25</title><g id="Layer_2" data-name="Layer 2"><g id="Logo_II" data-name="Logo II"><path class="cls-1" d="M54.73,7.93H45.55A1.51,1.51,0,0,1,44,6.38V1.79A1.54,1.54,0,0,1,45.55.24H54.7a1.54,1.54,0,0,1,1.54,1.55V6.38A1.53,1.53,0,0,1,54.73,7.93Zm-.27-5.84a.34.34,0,0,0-.32-.35h-8a.33.33,0,0,0-.32.35v4a.33.33,0,0,0,.32.32h8a.32.32,0,0,0,.32-.32v-4Z"/><path class="cls-1" d="M76.67,7.93H66.21V6.44h9.87a.32.32,0,0,0,.32-.32V5.18a.32.32,0,0,0-.32-.32H67.76a1.53,1.53,0,0,1-1.52-1.55V1.79A1.54,1.54,0,0,1,67.76.24H78v1.5H68.34a.32.32,0,0,0-.32.35V3a.32.32,0,0,0,.32.32H76.7a1.54,1.54,0,0,1,1.52,1.55V6.38A1.56,1.56,0,0,1,76.67,7.93Z"/><path class="cls-1" d="M22.07,7.9V.24h12v1.5H23.86v1.6h10V4.83h-10V6.44H34.05V7.93l-12,0Z"/><path class="cls-1" d="M98.87,7.93H89.7a1.51,1.51,0,0,1-1.52-1.55V1.79A1.54,1.54,0,0,1,89.7.24h9.14a1.54,1.54,0,0,1,1.55,1.55V6.38A1.53,1.53,0,0,1,98.87,7.93Zm-.26-5.84a.35.35,0,0,0-.32-.35h-8a.33.33,0,0,0-.32.35v4a.33.33,0,0,0,.32.32h8a.33.33,0,0,0,.32-.32v-4Z"/><polygon class="cls-1" points="123.03 5.91 122.91 6 123.03 5.97 123.03 5.91"/><path class="cls-1" d="M123,6l-.21,0-.37,0h-10a.41.41,0,0,1-.42-.41V0h-2.3V5.93a2,2,0,0,0,2,2H123Z"/><path class="cls-1" d="M10.43,7.93H1.52A1.51,1.51,0,0,1,0,6.38V1.79A1.54,1.54,0,0,1,1.52.24H12v1.5H2.1a.33.33,0,0,0-.32.35v4a.33.33,0,0,0,.32.32H9.88a.33.33,0,0,0,.32-.32V4.86h-4V3.37H12v3A1.53,1.53,0,0,1,10.43,7.93Z"/><path class="cls-1" d="M181.2,7.93h-9.39a1.56,1.56,0,0,1-1.56-1.59V1.65A1.57,1.57,0,0,1,171.81.06h9.36a1.58,1.58,0,0,1,1.59,1.59V6.34A1.57,1.57,0,0,1,181.2,7.93Zm-.26-6a.36.36,0,0,0-.33-.36h-8.2a.34.34,0,0,0-.33.36V6.07a.33.33,0,0,0,.33.33h8.2a.33.33,0,0,0,.33-.33V2Z"/><path class="cls-1" d="M225.22,7.93H214.51V6.4h10.11a.33.33,0,0,0,.33-.33v-1a.33.33,0,0,0-.33-.33h-8.53a1.57,1.57,0,0,1-1.55-1.59V1.65A1.57,1.57,0,0,1,216.09.06h10.47V1.59h-9.87a.34.34,0,0,0-.33.36v1a.33.33,0,0,0,.33.33h8.56a1.57,1.57,0,0,1,1.55,1.59V6.34A1.59,1.59,0,0,1,225.22,7.93Z"/><path class="cls-1" d="M150.09,7.93a1.55,1.55,0,0,1-1.55-1.59V1.65A1.57,1.57,0,0,1,150.09.06h10.24V1.59h-9.64a.34.34,0,0,0-.33.36V6.07a.33.33,0,0,0,.33.33h9.64V7.93Z"/><path class="cls-1" d="M202.9,7.93,194.26,2V7.93h-1.83V.09h1.83L202.9,6V.09h1.83V7.93Z"/><polygon class="cls-1" points="293.13 0.15 280.62 0.15 280.62 1.65 285.96 1.59 285.96 7.93 287.79 7.93 287.79 1.59 293.13 1.65 293.13 0.15"/><path class="cls-1" d="M308,7.93V.09h1.82V7.93Z"/><path class="cls-1" d="M357.65,7.93h-9.13A1.56,1.56,0,0,1,347,6.34V1.65A1.57,1.57,0,0,1,348.52.06h10.71V1.59H349.12a.34.34,0,0,0-.33.36V6.07a.33.33,0,0,0,.33.33h8a.33.33,0,0,0,.33-.33V4.79h-4.13V3.26h6V6.37A1.57,1.57,0,0,1,357.65,7.93Z"/><path class="cls-1" d="M335.35,7.93,326.7,2V7.93h-1.82V.09h1.82L335.35,6V.09h1.82V7.93Z"/><path class="cls-1" d="M270.9,6.4h-9.59a.37.37,0,0,1-.4-.33v-6h-2.2V6.34a1.73,1.73,0,0,0,1.87,1.59H270.9Z"/><path class="cls-1" d="M247.16.06v6a.33.33,0,0,1-.33.33h-8.2a.33.33,0,0,1-.33-.33v-6h-1.82s0,1.57,0,1.59V6.34A1.55,1.55,0,0,0,238,7.93h9.4A1.57,1.57,0,0,0,249,6.34V.06Z"/></g></g></svg>